<?xml version="1.0" encoding="UTF-8"?>
<svg id="Layer_1" data-name="Layer 1" xmlns="http://www.w3.org/2000/svg" viewBox="0 0 676.78 188.28">
  <defs>
    <style>
      .cls-1 {
        fill: #00303f;
      }

      .cls-2 {
        fill: #00aeef;
      }

      .cls-3 {
        fill: #e2b442;
      }
    </style>
  </defs>
  <path class="cls-1" d="M195.66,144.42V40.94h14.72l56.95,76.67-7.64,1.53V40.94h18.89v103.48h-14.86l-56.12-77.23,6.95-1.53v78.76h-18.89Z"/>
  <path class="cls-1" d="M350.99,84.33c-3.71,0-6.72,3.01-6.72,6.72v22.11c0,3.32-.65,6.21-1.94,8.6-1.29,2.42-3.09,4.3-5.42,5.62-2.3,1.35-4.95,2.02-7.9,2.02s-5.62-.67-7.98-2.02c-2.36-1.32-4.19-3.18-5.42-5.54-1.26-2.36-1.88-5.12-1.88-8.26v-23.75c0-3.04-2.46-5.51-5.51-5.51h-12.68v30.78c0,6.21,1.12,11.61,3.4,16.25,2.25,4.64,5.57,8.24,9.87,10.85,4.3,2.59,9.36,3.88,15.21,3.88,5.37,0,10.06-1.15,14.08-3.46,3.04-1.74,5.42-4.13,7.17-7.17v8.97h17.23v-60.09h-11.49Z"/>
  <path class="cls-2" d="M362.48,61.1v15.49h-11.65c-3.63,0-6.57-2.94-6.57-6.57v-8.92h18.21Z"/>
  <path class="cls-3" d="M313.72,61.1v9.01c0,3.58-2.9,6.48-6.48,6.48h-11.71v-15.49h18.19Z"/>
  <path class="cls-1" d="M516.69,173.45c-2.04,0-4.03-.16-5.97-.49-1.94-.33-3.7-.86-5.28-1.6v-15.28c1.2.28,2.66.56,4.37.83s3.31.42,4.79.42c4.17,0,7.2-.97,9.1-2.92,1.9-1.95,3.59-4.49,5.07-7.64l5-11.67-.28,15.28-32.92-83.2h19.59l23.06,61.39h-6.94l22.92-61.39h19.73l-32.92,83.2c-1.94,4.91-4.3,9.07-7.08,12.5-2.78,3.43-6,6.04-9.65,7.85-3.66,1.81-7.85,2.71-12.57,2.71Z"/>
  <path class="cls-1" d="M609.06,144.42c-5.28,0-9.86-.88-13.75-2.64-3.89-1.76-6.9-4.28-9.03-7.57-2.13-3.29-3.19-7.11-3.19-11.46s.92-7.89,2.78-11.18c1.85-3.29,4.72-6.04,8.61-8.26,3.89-2.22,8.79-3.8,14.72-4.72l24.73-4.03v13.89l-21.25,3.61c-3.61.65-6.3,1.81-8.06,3.47s-2.64,3.84-2.64,6.53.99,4.65,2.98,6.18c1.99,1.53,4.47,2.29,7.43,2.29,3.79,0,7.15-.81,10.07-2.43,2.92-1.62,5.19-3.87,6.81-6.74,1.62-2.87,2.43-6.02,2.43-9.45v-19.45c0-3.24-1.27-5.95-3.82-8.13-2.55-2.18-5.9-3.27-10.07-3.27-3.89,0-7.34,1.04-10.35,3.13-3.01,2.08-5.21,4.84-6.6,8.27l-14.86-7.22c1.48-3.98,3.82-7.43,7.01-10.35,3.19-2.92,6.97-5.21,11.32-6.88,4.35-1.67,9.07-2.5,14.17-2.5,6.2,0,11.67,1.14,16.39,3.4,4.72,2.27,8.4,5.42,11.04,9.44,2.64,4.03,3.96,8.73,3.96,14.1v50.28h-17.22v-12.92l3.89-.28c-1.94,3.24-4.26,5.95-6.94,8.13-2.69,2.18-5.74,3.84-9.17,5-3.43,1.16-7.22,1.74-11.39,1.74Z"/>
  <path class="cls-3" d="M155.08,159.88h-14.29c-11.66,0-21.11-9.45-21.11-21.11V52.73h17.5c9.89,0,17.9,8.01,17.9,17.9v89.26Z"/>
  <path class="cls-2" d="M119.68,39.21c0-12.08-9.79-21.87-21.87-21.87h-35.52c-19.14,0-34.7,15.21-35.33,34.2h-.06v108.35h10.55c13.72,0,24.85-11.12,24.85-24.85V52.73h57.4v-13.52Z"/>
  <path class="cls-1" d="M454.12,144.42c-5.28,0-9.86-.88-13.75-2.64-3.89-1.76-6.9-4.28-9.03-7.57-2.13-3.29-3.19-7.11-3.19-11.46s.92-7.89,2.78-11.18c1.85-3.29,4.72-6.04,8.61-8.26,3.89-2.22,8.79-3.8,14.72-4.72l24.73-4.03v13.89l-21.25,3.61c-3.61.65-6.3,1.81-8.06,3.47s-2.64,3.84-2.64,6.53.99,4.65,2.98,6.18c1.99,1.53,4.47,2.29,7.43,2.29,3.79,0,7.15-.81,10.07-2.43,2.92-1.62,5.19-3.87,6.81-6.74,1.62-2.87,2.43-6.02,2.43-9.45v-19.45c0-3.24-1.27-5.95-3.82-8.13-2.55-2.18-5.9-3.27-10.07-3.27-3.89,0-7.34,1.04-10.35,3.13-3.01,2.08-5.21,4.84-6.6,8.27l-14.86-7.22c1.48-3.98,3.82-7.43,7.01-10.35,3.19-2.92,6.97-5.21,11.32-6.88,4.35-1.67,9.07-2.5,14.17-2.5,6.2,0,11.67,1.14,16.39,3.4,4.72,2.27,8.4,5.42,11.04,9.44,2.64,4.03,3.96,8.73,3.96,14.1v50.28h-17.22v-12.92l3.89-.28c-1.94,3.24-4.26,5.95-6.94,8.13-2.69,2.18-5.74,3.84-9.17,5-3.43,1.16-7.22,1.74-11.39,1.74Z"/>
  <path class="cls-1" d="M377.68,144.77v-53.19c0-13.11,10.62-23.73,23.73-23.73h19.4v16.54h-24.6v60.38h-18.52Z"/>
</svg>